<svg width="206" height="126" viewBox="0 0 206 126" fill="none" xmlns="http://www.w3.org/2000/svg">
<g filter="url(#filter0_d_22_6)">
<path d="M112.27 27.6682C114.296 25.6425 117.58 25.6425 119.606 27.6682L174.283 82.3452C176.309 84.371 176.309 87.6554 174.283 89.6812C172.257 91.7069 168.973 91.7069 166.947 89.6812L112.27 35.0042C110.245 32.9784 110.245 29.694 112.27 27.6682Z" fill="url(#paint0_linear_22_6)"/>
</g>
<g filter="url(#filter1_d_22_6)">
<path d="M112.319 89.729C110.293 87.7033 110.293 84.4189 112.319 82.3931L166.996 27.7161C169.022 25.6903 172.306 25.6903 174.332 27.7161C176.358 29.7419 176.358 33.0262 174.332 35.052L119.655 89.729C117.629 91.7548 114.345 91.7548 112.319 89.729Z" fill="url(#paint1_linear_22_6)"/>
<path d="M112.673 89.3755C110.842 87.545 110.842 84.5771 112.673 82.7467L167.35 28.0696C169.18 26.2392 172.148 26.2392 173.978 28.0696C175.809 29.9001 175.809 32.868 173.978 34.6985L119.301 89.3755C117.471 91.2059 114.503 91.2059 112.673 89.3755Z" stroke="#19FF20"/>
</g>
<path d="M21.2919 82.4774C17.2538 82.4774 13.6133 81.4754 10.3706 79.4715C7.12788 77.4676 4.58876 74.735 2.75326 71.2737C0.917753 67.8124 0 63.926 0 59.6146C0 55.2424 0.917753 51.3257 2.75326 47.8643C4.58876 44.403 7.12788 41.6704 10.3706 39.6665C13.6133 37.6626 17.2538 36.6606 21.2919 36.6606C24.4734 36.6606 27.3184 37.2983 29.827 38.5735C32.3355 39.8487 34.324 41.6401 35.7924 43.9476C37.322 46.1944 38.1479 48.7449 38.2703 51.5989V67.448C38.1479 70.3628 37.322 72.9436 35.7924 75.1904C34.324 77.4373 32.3355 79.2286 29.827 80.5646C27.3184 81.8398 24.4734 82.4774 21.2919 82.4774ZM23.4945 71.4559C26.8596 71.4559 29.5822 70.3628 31.6625 68.1767C33.7427 65.9299 34.7828 63.0455 34.7828 59.5235C34.7828 57.2159 34.2934 55.1817 33.3144 53.4207C32.3967 51.5989 31.0812 50.2022 29.3681 49.2306C27.7161 48.1983 25.7583 47.6822 23.4945 47.6822C21.2919 47.6822 19.334 48.1983 17.6209 49.2306C15.9689 50.2022 14.6535 51.5989 13.6745 53.4207C12.7568 55.1817 12.2979 57.2159 12.2979 59.5235C12.2979 61.8917 12.7568 63.9867 13.6745 65.8085C14.6535 67.5695 15.9689 68.9662 17.6209 69.9985C19.334 70.9701 21.2919 71.4559 23.4945 71.4559ZM34.1404 81.5665V69.7252L36.0677 58.977L34.1404 48.4109V37.5715H46.0712V81.5665H34.1404Z" fill="#01FF82"/>
<path d="M81.3029 82.4774C78.1213 82.4774 75.2457 81.8398 72.676 80.5646C70.1063 79.2286 68.0566 77.4373 66.527 75.1904C64.9975 72.9436 64.1715 70.3628 64.0491 67.448V51.8722C64.1715 48.9574 64.9975 46.3766 66.527 44.1298C68.1178 41.8222 70.1675 40.0005 72.676 38.6646C75.2457 37.3286 78.1213 36.6606 81.3029 36.6606C85.4022 36.6606 89.0732 37.6626 92.3159 39.6665C95.5586 41.6704 98.0978 44.403 99.9333 47.8643C101.83 51.3257 102.778 55.2424 102.778 59.6146C102.778 63.926 101.83 67.8124 99.9333 71.2737C98.0978 74.735 95.5586 77.4676 92.3159 79.4715C89.0732 81.4754 85.4022 82.4774 81.3029 82.4774ZM79.192 71.4559C81.3946 71.4559 83.3525 70.9701 85.0657 69.9985C86.7788 68.9662 88.0942 67.5695 89.012 65.8085C89.9909 63.9867 90.4804 61.8917 90.4804 59.5235C90.4804 57.2159 89.9909 55.1817 89.012 53.4207C88.0942 51.5989 86.7788 50.2022 85.0657 49.2306C83.3525 48.1983 81.3946 47.6822 79.192 47.6822C77.0506 47.6822 75.1233 48.1983 73.4102 49.2306C71.6971 50.2022 70.351 51.5989 69.3721 53.4207C68.4543 55.1817 67.9955 57.2159 67.9955 59.5235C67.9955 61.8917 68.4543 63.9867 69.3721 65.8085C70.351 67.5695 71.6665 68.9662 73.3184 69.9985C75.0316 70.9701 76.9894 71.4559 79.192 71.4559ZM56.7071 99.9661V37.5715H68.7297V49.1396L66.7106 59.7967L68.6379 70.4539V99.9661H56.7071Z" fill="#01FF82"/>
<defs>
<filter id="filter0_d_22_6" x="80.751" y="0.148926" width="125.052" height="125.052" filterUnits="userSpaceOnUse" color-interpolation-filters="sRGB">
<feFlood flood-opacity="0" result="BackgroundImageFix"/>
<feColorMatrix in="SourceAlpha" type="matrix" values="0 0 0 0 0 0 0 0 0 0 0 0 0 0 0 0 0 0 127 0" result="hardAlpha"/>
<feOffset dy="4"/>
<feGaussianBlur stdDeviation="15"/>
<feComposite in2="hardAlpha" operator="out"/>
<feColorMatrix type="matrix" values="0 0 0 0 0 0 0 0 0 0 0 0 0 0 0 0 0 0 0.25 0"/>
<feBlend mode="normal" in2="BackgroundImageFix" result="effect1_dropShadow_22_6"/>
<feBlend mode="normal" in="SourceGraphic" in2="effect1_dropShadow_22_6" result="shape"/>
</filter>
<filter id="filter1_d_22_6" x="80.7998" y="0.196777" width="125.052" height="125.052" filterUnits="userSpaceOnUse" color-interpolation-filters="sRGB">
<feFlood flood-opacity="0" result="BackgroundImageFix"/>
<feColorMatrix in="SourceAlpha" type="matrix" values="0 0 0 0 0 0 0 0 0 0 0 0 0 0 0 0 0 0 127 0" result="hardAlpha"/>
<feOffset dy="4"/>
<feGaussianBlur stdDeviation="15"/>
<feComposite in2="hardAlpha" operator="out"/>
<feColorMatrix type="matrix" values="0 0 0 0 0 0 0 0 0 0 0 0 0 0 0 0 0 0 0.25 0"/>
<feBlend mode="normal" in2="BackgroundImageFix" result="effect1_dropShadow_22_6"/>
<feBlend mode="normal" in="SourceGraphic" in2="effect1_dropShadow_22_6" result="shape"/>
</filter>
<linearGradient id="paint0_linear_22_6" x1="174.276" y1="91.0293" x2="113.205" y2="28.841" gradientUnits="userSpaceOnUse">
<stop stop-color="#82958C"/>
<stop offset="0.359375" stop-color="#82958C"/>
<stop offset="0.510417" stop-color="#6B7B73"/>
<stop offset="0.666667" stop-color="#82958C"/>
<stop offset="1" stop-color="#82958C"/>
</linearGradient>
<linearGradient id="paint1_linear_22_6" x1="112.46" y1="90.2838" x2="174.276" y2="28.0955" gradientUnits="userSpaceOnUse">
<stop stop-color="#01FF82"/>
<stop offset="0.244792" stop-color="#0FFF89"/>
<stop offset="0.484375" stop-color="#24FF93"/>
<stop offset="0.75" stop-color="#12FF8A"/>
<stop offset="1" stop-color="#01FF82"/>
</linearGradient>
</defs>
</svg>
