<?xml version="1.0" encoding="utf-8"?>
<svg viewBox="79.593 112.073 382.299 164.188" xmlns="http://www.w3.org/2000/svg">
  <path d="M 449.923 125.28 C 447.831 125.28 444.81 126.674 443.416 128.3 L 402.165 172.92 L 360.799 128.185 C 359.404 126.558 356.615 125.28 354.291 125.28 C 349.529 125.28 345.577 129.23 345.577 133.994 C 345.577 135.969 346.739 138.643 348.017 140.037 L 390.197 185.703 L 347.436 231.949 C 346.159 233.344 344.996 236.017 344.996 237.992 C 344.996 242.756 348.946 246.707 353.711 246.707 C 355.803 246.707 358.824 245.428 360.218 243.802 L 402.165 198.601 L 443.996 243.918 C 445.391 245.545 448.413 246.822 450.504 246.822 C 455.268 246.822 459.219 242.872 459.219 238.108 C 459.219 236.133 458.057 233.459 456.779 232.066 L 414.018 185.703 L 456.198 140.153 C 457.477 138.759 458.638 136.087 458.638 134.11 C 458.638 129.346 454.803 125.28 449.923 125.28 Z" style="fill: rgb(51, 51, 51); white-space: pre;" transform="matrix(0.999935, -0.011383, 0.011383, 0.999935, -2.091767, 4.589245)"/>
  <path d="M 136.415 112.422 C 103.879 112.422 79.593 141.588 79.593 173.31 C 79.593 205.148 103.995 233.849 135.833 233.849 C 151.288 233.849 165.928 223.159 176.153 212.003 L 176.153 225.25 C 176.153 229.781 179.756 233.384 184.287 233.384 C 188.82 233.384 192.421 229.781 192.421 225.25 L 192.421 120.207 C 192.421 115.676 188.82 112.073 184.287 112.073 C 179.756 112.073 177.2 115.792 177.2 120.207 L 176.153 134.847 C 166.277 124.157 153.03 112.422 136.415 112.422 Z M 176.736 172.612 C 176.736 195.27 158.028 216.42 135.833 216.42 C 113.755 216.42 97.024 195.619 97.024 173.31 C 97.024 150.768 113.872 129.851 136.531 129.851 C 158.84 129.851 176.736 150.185 176.736 172.612 Z M 276.075 112.654 C 259.807 112.654 246.56 123.461 237.73 132.407 L 237.149 121.252 C 237.149 116.488 233.779 112.538 229.015 112.538 C 224.251 112.538 220.301 116.488 220.301 121.252 L 220.301 267.546 C 220.301 272.31 224.135 276.261 229.015 276.261 C 233.779 276.261 237.73 272.31 237.73 267.546 L 237.73 215.025 C 247.142 224.901 259.807 233.849 275.03 233.849 C 307.101 233.849 330.224 203.986 330.224 172.38 C 330.224 140.89 307.681 112.654 276.075 112.654 Z M 275.726 130.084 C 297.804 130.084 312.561 149.954 312.561 172.031 C 312.561 194.341 297.804 216.42 275.261 216.42 C 251.907 216.42 237.846 195.735 237.846 174.006 C 237.846 152.045 252.138 130.084 275.726 130.084 Z" style="fill: rgb(51, 51, 51); white-space: pre;"/>
  <path d="M 452.596 112.538 C 450.505 112.538 447.483 113.932 446.089 115.559 L 404.838 160.179 L 363.472 115.443 C 362.077 113.817 359.288 112.538 356.966 112.538 C 352.202 112.538 348.25 116.488 348.25 121.252 C 348.25 123.228 349.413 125.901 350.691 127.295 L 392.87 172.961 L 350.109 219.207 C 348.832 220.602 347.669 223.275 347.669 225.25 C 347.669 230.014 351.621 233.965 356.384 233.965 C 358.476 233.965 361.497 232.686 362.891 231.06 L 404.838 185.859 L 446.671 231.176 C 448.065 232.803 451.086 234.081 453.177 234.081 C 457.941 234.081 461.892 230.13 461.892 225.366 C 461.892 223.391 460.73 220.718 459.452 219.325 L 416.691 172.961 L 458.871 127.411 C 460.15 126.017 461.311 123.345 461.311 121.368 C 461.311 116.604 457.476 112.538 452.596 112.538 Z" style="fill: rgb(255, 187, 0); white-space: pre;"/>
</svg>